<?xml version="1.0" standalone="no"?><svg xmlns="http://www.w3.org/2000/svg" viewBox="0 0 1440 320"><path fill="#00cba9" fill-opacity="1" d="M0,288L10.9,266.7C21.8,245,44,203,65,192C87.3,181,109,203,131,192C152.7,181,175,139,196,133.3C218.2,128,240,160,262,149.3C283.6,139,305,85,327,106.7C349.1,128,371,224,393,245.3C414.5,267,436,213,458,176C480,139,502,117,524,101.3C545.5,85,567,75,589,106.7C610.9,139,633,213,655,250.7C676.4,288,698,288,720,261.3C741.8,235,764,181,785,170.7C807.3,160,829,192,851,192C872.7,192,895,160,916,144C938.2,128,960,128,982,154.7C1003.6,181,1025,235,1047,261.3C1069.1,288,1091,288,1113,261.3C1134.5,235,1156,181,1178,176C1200,171,1222,213,1244,213.3C1265.5,213,1287,171,1309,144C1330.9,117,1353,107,1375,101.3C1396.4,96,1418,96,1429,96L1440,96L1440,0L1429.1,0C1418.2,0,1396,0,1375,0C1352.7,0,1331,0,1309,0C1287.3,0,1265,0,1244,0C1221.8,0,1200,0,1178,0C1156.4,0,1135,0,1113,0C1090.9,0,1069,0,1047,0C1025.5,0,1004,0,982,0C960,0,938,0,916,0C894.5,0,873,0,851,0C829.1,0,807,0,785,0C763.6,0,742,0,720,0C698.2,0,676,0,655,0C632.7,0,611,0,589,0C567.3,0,545,0,524,0C501.8,0,480,0,458,0C436.4,0,415,0,393,0C370.9,0,349,0,327,0C305.5,0,284,0,262,0C240,0,218,0,196,0C174.5,0,153,0,131,0C109.1,0,87,0,65,0C43.6,0,22,0,11,0L0,0Z"></path></svg>