<?xml version="1.0" standalone="no"?><svg xmlns="http://www.w3.org/2000/svg" viewBox="0 0 1440 320"><path fill="#F094E4" fill-opacity="1" d="M0,192L17.1,192C34.3,192,69,192,103,186.7C137.1,181,171,171,206,149.3C240,128,274,96,309,80C342.9,64,377,64,411,85.3C445.7,107,480,149,514,170.7C548.6,192,583,192,617,197.3C651.4,203,686,213,720,229.3C754.3,245,789,267,823,250.7C857.1,235,891,181,926,186.7C960,192,994,256,1029,240C1062.9,224,1097,128,1131,122.7C1165.7,117,1200,203,1234,202.7C1268.6,203,1303,117,1337,85.3C1371.4,53,1406,75,1423,85.3L1440,96L1440,0L1422.9,0C1405.7,0,1371,0,1337,0C1302.9,0,1269,0,1234,0C1200,0,1166,0,1131,0C1097.1,0,1063,0,1029,0C994.3,0,960,0,926,0C891.4,0,857,0,823,0C788.6,0,754,0,720,0C685.7,0,651,0,617,0C582.9,0,549,0,514,0C480,0,446,0,411,0C377.1,0,343,0,309,0C274.3,0,240,0,206,0C171.4,0,137,0,103,0C68.6,0,34,0,17,0L0,0Z"></path></svg>