<?xml version="1.0" standalone="no"?><svg xmlns="http://www.w3.org/2000/svg" viewBox="0 0 1440 320"><path fill="#07D1F5" fill-opacity="1" d="M0,64L21.8,106.7C43.6,149,87,235,131,240C174.5,245,218,171,262,165.3C305.5,160,349,224,393,250.7C436.4,277,480,267,524,229.3C567.3,192,611,128,655,112C698.2,96,742,128,785,144C829.1,160,873,160,916,181.3C960,203,1004,245,1047,266.7C1090.9,288,1135,288,1178,266.7C1221.8,245,1265,203,1309,186.7C1352.7,171,1396,181,1418,186.7L1440,192L1440,0L1418.2,0C1396.4,0,1353,0,1309,0C1265.5,0,1222,0,1178,0C1134.5,0,1091,0,1047,0C1003.6,0,960,0,916,0C872.7,0,829,0,785,0C741.8,0,698,0,655,0C610.9,0,567,0,524,0C480,0,436,0,393,0C349.1,0,305,0,262,0C218.2,0,175,0,131,0C87.3,0,44,0,22,0L0,0Z"></path></svg>