<?xml version="1.0" standalone="no"?><svg xmlns="http://www.w3.org/2000/svg" viewBox="0 0 1440 320"><path fill="#52CCF6" fill-opacity="1" d="M0,128L26.7,112C53.3,96,107,64,160,85.3C213.3,107,267,181,320,202.7C373.3,224,427,192,480,197.3C533.3,203,587,245,640,234.7C693.3,224,747,160,800,144C853.3,128,907,160,960,192C1013.3,224,1067,256,1120,261.3C1173.3,267,1227,245,1280,229.3C1333.3,213,1387,203,1413,197.3L1440,192L1440,0L1413.3,0C1386.7,0,1333,0,1280,0C1226.7,0,1173,0,1120,0C1066.7,0,1013,0,960,0C906.7,0,853,0,800,0C746.7,0,693,0,640,0C586.7,0,533,0,480,0C426.7,0,373,0,320,0C266.7,0,213,0,160,0C106.7,0,53,0,27,0L0,0Z"></path></svg>